<svg xmlns="http://www.w3.org/2000/svg" viewBox="0 0 720 623.56"><defs><linearGradient id="a" x1="96.1" y1="621.98" x2="208.22" y2="427.78" gradientTransform="matrix(-1 0 0 1 725.19 0)" gradientUnits="userSpaceOnUse"><stop offset=".22" stop-color="#1cd2e9"/><stop offset=".3" stop-color="#21c7ec"/><stop offset=".44" stop-color="#2eaaf4"/><stop offset=".59" stop-color="#3d88fd"/><stop offset=".9" stop-color="#6946ff"/></linearGradient><linearGradient id="b" x1="160.86" y1="585.63" x2="393.3" y2="451.44" gradientTransform="matrix(-1 0 0 1 728.63 1.98)" gradientUnits="userSpaceOnUse"><stop offset=".09" stop-color="#71ffce"/><stop offset=".65" stop-color="#1cdce9"/></linearGradient><linearGradient id="c" x1="436.55" y1="655.72" x2="654.56" y2="278.11" gradientTransform="matrix(-1 0 0 1 725.19 0)" gradientUnits="userSpaceOnUse"><stop offset=".16" stop-color="#5e30ee"/><stop offset=".23" stop-color="#5937ef"/><stop offset=".46" stop-color="#4f47f0"/><stop offset=".63" stop-color="#4b4df1"/></linearGradient><linearGradient id="d" x1="275.14" y1="233.82" x2="725.19" y2="233.82" gradientTransform="matrix(-1 0 0 1 725.19 0)" gradientUnits="userSpaceOnUse"><stop offset=".26" stop-color="#71ffce"/><stop offset=".84" stop-color="#1cdce9"/></linearGradient><linearGradient id="e" x1="204.06" y1="150.76" x2="571.13" y2="517.83" gradientTransform="matrix(-1 0 0 1 725.19 0)" gradientUnits="userSpaceOnUse"><stop offset=".08" stop-color="#1cd2e9"/><stop offset=".59" stop-color="#3d88fd"/><stop offset=".92" stop-color="#6946ff"/></linearGradient><linearGradient id="f" x1="133.64" y1="349.76" x2="285.47" y2="412.65" gradientTransform="matrix(-1 0 0 1 725.19 0)" gradientUnits="userSpaceOnUse"><stop offset="0" stop-color="#4b4df1"/><stop offset=".42" stop-color="#5341f0"/><stop offset=".84" stop-color="#5e30ee"/></linearGradient></defs><g data-name="Layer 2"><g data-name="Layer 1"><path fill="url(#a)" d="M449.99 623.56l-89.95-155.92 89.95-155.78H629.9L720 467.64l-90.1 155.92H449.99z"/><path fill="url(#b)" d="M360.04 467.64h179.97l89.89 155.92H449.99l-89.95-155.92z"/><path fill="url(#c)" d="M90.14 623.56L0 467.64l90.14-155.78h180.03l89.87 155.78-89.87 155.92H90.14z"/><path fill="url(#d)" d="M450.05 0L180.09 467.64H0L270.06 0h179.99z"/><path fill="url(#e)" d="M450.05 0l89.94 155.9-269.82 467.66-90.08-155.92L450.05 0z"/><path fill="url(#f)" d="M629.9 311.86l-89.89 155.78H360.04l89.95-155.78H629.9z"/></g></g></svg>